# xmcd
#
# Track frame offsets: 
#        150
#        10107
#        21055
#        31992
#        48455
#        59127
#        70115
#        82652
#        92772
#        101115
#        112782
#        122367
#        134455
#        152902
#        167122
#        182260
#        192672
#        203532
#        214462
#        226710
#
# Disc length: 3197 seconds
#
# Revision: 2
# Processed by: cddbd v1.5.2PL0 Copyright (c) Steve Scherf et al.
# Submitted via: ExactAudioCopy v1.0b3
#
DISCID=040c7b14
DTITLE=Jimmy C. Newman - Cajun Country Classics
DYEAR=1992
DGENRE=Country
TTITLE0=Alligator Man
TTITLE1=Bigmamou
TTITLE2=Allons A Lafayette
TTITLE3=Sugarbee
TTITLE4=Lousiana Man
TTITLE5=Diggy Liggy Loo
TTITLE6=Jolie Blon
TTITLE7=Colinda
TTITLE8=Thibodeaux and His Cajun Band
TTITLE9=Boo-Dan
TTITLE10=Louisiana Saturday Night
TTITLE11=Jambalaya (On The Bayou)
TTITLE12=Lache Pas La Patate
TTITLE13=Basile Waltz
TTITLE14=Sweet Suzannah
TTITLE15=The Happy Cajun
TTITLE16=Grand Chenier
TTITLE17=Big Bayou
TTITLE18=A Cajun Man Can
TTITLE19=Daydreamin'
EXTD=
EXTT0=
EXTT1=
EXTT2=
EXTT3=
EXTT4=
EXTT5=
EXTT6=
EXTT7=
EXTT8=
EXTT9=
EXTT10=
EXTT11=
EXTT12=
EXTT13=
EXTT14=
EXTT15=
EXTT16=
EXTT17=
EXTT18=
EXTT19=
PLAYORDER=
